<svg xmlns="http://www.w3.org/2000/svg" viewBox="0 0 133.71 133.71"><title>Fichier 7</title><g id="Calque_2" data-name="Calque 2"><g id="Calque_14" data-name="Calque 14"><text transform="translate(64.02 53.78)" font-size="32.17" fill="#1d1d1b" font-family="Griffy-Regular, Griffy">G</text><text transform="matrix(-1, 0, 0, 1, 70.41, 53.78)" font-size="32.17" fill="#1d1d1b" font-family="Griffy-Regular, Griffy">G</text><text transform="translate(67.59 76.58) rotate(180)" font-size="32.17" fill="#1d1d1b" font-family="Griffy-Regular, Griffy">G</text><text transform="matrix(1, 0, 0, -1, 66.41, 76.58)" font-size="32.17" fill="#1d1d1b" font-family="Griffy-Regular, Griffy">G</text><text transform="matrix(0.66, -0.75, 0.75, 0.66, 26.93, 37.27)" font-size="19.56" fill="#1d1d1b" font-family="Geo-Regular, Geo">G</text><text transform="matrix(0.78, -0.62, 0.62, 0.78, 32.65, 30.75)" font-size="19.56" fill="#1d1d1b" font-family="Geo-Regular, Geo">e</text><text transform="matrix(0.88, -0.48, 0.48, 0.88, 39.47, 25.32)" font-size="19.56" fill="#1d1d1b" font-family="Geo-Regular, Geo">t</text><text transform="matrix(0.94, -0.33, 0.33, 0.94, 46.36, 21.44)" font-size="19.56" fill="#1d1d1b" font-family="Geo-Regular, Geo">s</text><text transform="translate(54.56 18.55) rotate(-9.01)" font-size="19.56" fill="#1d1d1b" font-family="Geo-Regular, Geo">s</text><text transform="translate(63.13 17.15) rotate(0.97)" font-size="19.56" fill="#1d1d1b" font-family="Geo-Regular, Geo">o</text><text transform="translate(71.83 17.25) rotate(11.02)" font-size="19.56" fill="#1d1d1b" font-family="Geo-Regular, Geo">n</text><text transform="translate(80.35 18.86) rotate(21.14)" font-size="19.56" fill="#1d1d1b" font-family="Geo-Regular, Geo">e</text><text transform="translate(40.29 122.34) rotate(21.64)" font-size="17.82" fill="#1d1d1b" font-family="Geo-Regular, Geo">C</text><text transform="matrix(0.98, 0.22, -0.22, 0.98, 49.13, 125.75)" font-size="17.82" fill="#1d1d1b" font-family="Geo-Regular, Geo">e</text><text transform="translate(58.33 127.72) rotate(4.61)" font-size="17.82" fill="#1d1d1b" font-family="Geo-Regular, Geo">r</text><text transform="matrix(1, -0.05, 0.05, 1, 66.38, 128.32)" font-size="17.82" fill="#1d1d1b" font-family="Geo-Regular, Geo">t</text><text transform="matrix(0.99, -0.16, 0.16, 0.99, 74.78, 127.74)" font-size="17.82" fill="#1d1d1b" font-family="Geo-Regular, Geo">i</text><text transform="translate(79.72 127.02) rotate(-15.79)" font-size="17.82" fill="#1d1d1b" font-family="Geo-Regular, Geo">f</text><text transform="translate(88.54 124.35) rotate(-22.44)" font-size="17.82" fill="#1d1d1b" font-family="Geo-Regular, Geo">i</text><text transform="matrix(0.87, -0.49, 0.49, 0.87, 93.17, 122.52)" font-size="17.82" fill="#1d1d1b" font-family="Geo-Regular, Geo">e</text><text transform="matrix(0.79, -0.61, 0.61, 0.79, 101.41, 117.84)" font-size="17.82" fill="#1d1d1b" font-family="Geo-Regular, Geo">d</text></g><g id="Calque_13" data-name="Calque 13"><circle cx="66.85" cy="66.51" r="44.89" fill="none" stroke="#1d1d1b" stroke-miterlimit="10"/><circle cx="66.85" cy="66.85" r="66.35" fill="none" stroke="#1d1d1b" stroke-miterlimit="10"/></g></g></svg>